<?xml version="1.0" encoding="UTF-8" standalone="no"?><!DOCTYPE svg PUBLIC "-//W3C//DTD SVG 1.1//EN" "http://www.w3.org/Graphics/SVG/1.1/DTD/svg11.dtd"><!-- Generated by graphviz version 2.40.1 (20161225.0304)
 --><!-- Title: G Pages: 1 --><svg xmlns="http://www.w3.org/2000/svg" xmlns:xlink="http://www.w3.org/1999/xlink" width="312pt" height="272pt" viewBox="0.00 0.00 311.96 272.00">
<g id="graph0" class="graph" transform="scale(1 1) rotate(0) translate(4 268)">
<title>G</title>
<polygon fill="#ffffff" stroke="transparent" points="-4,4 -4,-268 307.957,-268 307.957,4 -4,4"/>
<!-- unbound -->
<g id="node1" class="node">
<title>unbound</title>
<ellipse fill="none" stroke="#000000" cx="44.8358" cy="-246" rx="44.6722" ry="18"/>
<text text-anchor="middle" x="44.8358" y="-241.8" font-family="Times,serif" font-size="14.00" fill="#000000">unbound</text>
</g>
<!-- bound -->
<g id="node2" class="node">
<title>bound</title>
<ellipse fill="#f2f2f2" stroke="#000000" cx="45.8358" cy="-18" rx="35.3587" ry="18"/>
<text text-anchor="middle" x="45.8358" y="-13.8" font-family="Times,serif" font-size="14.00" fill="#000000">bound</text>
</g>
<!-- unbound&#45;&gt;bound -->
<g id="edge1" class="edge">
<title>unbound-&gt;bound</title>
<path fill="none" stroke="#000000" d="M42.619,-227.5989C39.3778,-198.2376 34.0482,-138.9829 37.124,-88.8 37.9882,-74.7005 39.8118,-59.11 41.5683,-46.1562"/>
<polygon fill="#000000" stroke="#000000" points="45.0717,-46.3771 43.0054,-35.9857 38.1406,-45.3976 45.0717,-46.3771"/>
<text text-anchor="middle" x="56.6917" y="-102.6" font-family="Times,serif" font-size="14.00" fill="#000000"> bind()</text>
</g>
<!-- binding -->
<g id="node3" class="node">
<title>binding</title>
<ellipse fill="none" stroke="#000000" cx="124.8358" cy="-106.8" rx="40.5925" ry="18"/>
<text text-anchor="middle" x="124.8358" y="-102.6" font-family="Times,serif" font-size="14.00" fill="#000000">binding</text>
</g>
<!-- unbound&#45;&gt;binding -->
<g id="edge2" class="edge">
<title>unbound-&gt;binding</title>
<path fill="none" stroke="#000000" d="M54.9679,-228.3702C68.7933,-204.3139 93.679,-161.0128 109.7156,-133.1093"/>
<polygon fill="#000000" stroke="#000000" points="112.8377,-134.7008 114.786,-124.2866 106.7686,-131.2128 112.8377,-134.7008"/>
<text text-anchor="middle" x="165.0655" y="-197.4" font-family="Times,serif" font-size="14.00" fill="#000000"> get()</text>
<text text-anchor="middle" x="165.0655" y="-180.6" font-family="Times,serif" font-size="14.00" fill="#000000"> orElse()</text>
<text text-anchor="middle" x="165.0655" y="-163.8" font-family="Times,serif" font-size="14.00" fill="#000000"> orElseThrow()</text>
<text text-anchor="middle" x="165.0655" y="-147" font-family="Times,serif" font-size="14.00" fill="#000000"> computeIfUnbound()</text>
</g>
<!-- binding&#45;&gt;bound -->
<g id="edge3" class="edge">
<title>binding-&gt;bound</title>
<path fill="none" stroke="#000000" d="M92.5657,-95.6176C80.4429,-89.9264 67.5504,-81.828 59.0344,-70.8 53.6149,-63.7819 50.3952,-54.814 48.4906,-46.2688"/>
<polygon fill="#000000" stroke="#000000" points="51.9058,-45.4762 46.7604,-36.2147 45.0072,-46.6635 51.9058,-45.4762"/>
<text text-anchor="middle" x="110.2365" y="-58.2" font-family="Times,serif" font-size="14.00" fill="#000000"> provider -&gt; value</text>
</g>
<!-- error -->
<g id="node4" class="node">
<title>error</title>
<ellipse fill="#f2f2f2" stroke="#000000" cx="185.8358" cy="-18" rx="29.5936" ry="18"/>
<text text-anchor="middle" x="185.8358" y="-13.8" font-family="Times,serif" font-size="14.00" fill="#000000">error</text>
</g>
<!-- binding&#45;&gt;error -->
<g id="edge4" class="edge">
<title>binding-&gt;error</title>
<path fill="none" stroke="#000000" d="M145.1534,-91.0455C151.7342,-85.2114 158.6621,-78.2011 163.8358,-70.8 169.152,-63.195 173.5183,-54.1077 176.9198,-45.6331"/>
<polygon fill="#000000" stroke="#000000" points="180.263,-46.6846 180.4689,-36.0917 173.7021,-44.2441 180.263,-46.6846"/>
<text text-anchor="middle" x="238.3964" y="-58.2" font-family="Times,serif" font-size="14.00" fill="#000000"> provider -&gt; Throwable</text>
</g>
</g>
</svg>